<svg xmlns="http://www.w3.org/2000/svg" viewBox="0 0 500 500"><g id="freepik--background-simple--inject-72"><path d="M441.64,158S374.89,78.11,271.49,59.79,147.8,119.34,113.12,165.15,39.16,228,37.2,294.08s24.87,100.13,76.57,123.69,104.71,36,156.41,43.19,92.93,3.27,113.22-39.27,11.12-62.17,34.68-82.46S494.65,226.67,441.64,158Z" style="fill:#92E3A9"></path><path d="M441.64,158S374.89,78.11,271.49,59.79,147.8,119.34,113.12,165.15,39.16,228,37.2,294.08s24.87,100.13,76.57,123.69,104.71,36,156.41,43.19,92.93,3.27,113.22-39.27,11.12-62.17,34.68-82.46S494.65,226.67,441.64,158Z" style="fill:#fff;opacity:0.7000000000000001"></path></g><g id="freepik--Plant--inject-72"><line x1="389.7" y1="271.97" x2="405.69" y2="425.22" style="fill:none;stroke:#263238;stroke-miterlimit:10"></line><line x1="403.12" y1="395.9" x2="395.87" y2="388.24" style="fill:none;stroke:#263238;stroke-miterlimit:10"></line><path d="M398.07,390.53a8.19,8.19,0,0,0-2.89-6.15c-1.86-1.66-11.65-5.78-12.58-2.33C381.59,385.8,391.61,393.17,398.07,390.53Z" style="fill:#92E3A9;stroke:#263238;stroke-miterlimit:10"></path><line x1="398.07" y1="390.53" x2="388.74" y2="384.72" style="fill:none;stroke:#263238;stroke-miterlimit:10;stroke-width:0.5px"></line><line x1="404.94" y1="413.32" x2="397.69" y2="405.67" style="fill:none;stroke:#263238;stroke-miterlimit:10"></line><path d="M399.89,408a8.19,8.19,0,0,0-2.89-6.15c-1.86-1.66-11.65-5.78-12.58-2.33C383.41,403.23,393.43,410.6,399.89,408Z" style="fill:#92E3A9;stroke:#263238;stroke-miterlimit:10"></path><line x1="399.89" y1="407.96" x2="390.56" y2="402.15" style="fill:none;stroke:#263238;stroke-miterlimit:10;stroke-width:0.5px"></line><line x1="398.68" y1="353.36" x2="391.43" y2="345.71" style="fill:none;stroke:#263238;stroke-miterlimit:10"></line><path d="M393.63,348a8.2,8.2,0,0,0-2.88-6.15c-1.87-1.66-11.66-5.78-12.59-2.33C377.15,343.27,387.17,350.64,393.63,348Z" style="fill:#92E3A9;stroke:#263238;stroke-miterlimit:10"></path><line x1="393.63" y1="348" x2="384.31" y2="342.19" style="fill:none;stroke:#263238;stroke-miterlimit:10;stroke-width:0.5px"></line><line x1="400.5" y1="370.79" x2="393.25" y2="363.14" style="fill:none;stroke:#263238;stroke-miterlimit:10"></line><path d="M395.45,365.43a8.19,8.19,0,0,0-2.89-6.15c-1.86-1.66-11.65-5.78-12.58-2.33C379,360.7,389,368.07,395.45,365.43Z" style="fill:#92E3A9;stroke:#263238;stroke-miterlimit:10"></path><line x1="395.45" y1="365.43" x2="386.13" y2="359.62" style="fill:none;stroke:#263238;stroke-miterlimit:10;stroke-width:0.5px"></line><line x1="395.72" y1="325.05" x2="388.47" y2="317.39" style="fill:none;stroke:#263238;stroke-miterlimit:10"></line><path d="M390.68,319.69a8.23,8.23,0,0,0-2.89-6.15c-1.86-1.66-11.66-5.78-12.59-2.33C374.19,315,384.22,322.33,390.68,319.69Z" style="fill:#92E3A9;stroke:#263238;stroke-miterlimit:10"></path><line x1="390.68" y1="319.69" x2="381.35" y2="313.88" style="fill:none;stroke:#263238;stroke-miterlimit:10;stroke-width:0.5px"></line><line x1="392.76" y1="296.62" x2="385.51" y2="288.96" style="fill:none;stroke:#263238;stroke-miterlimit:10;stroke-width:2px"></line><path d="M387.71,291.25a8.19,8.19,0,0,0-2.89-6.15c-1.86-1.66-11.65-5.78-12.58-2.33C371.23,286.52,381.25,293.89,387.71,291.25Z" style="fill:#92E3A9;stroke:#263238;stroke-miterlimit:10"></path><line x1="387.71" y1="291.25" x2="378.38" y2="285.44" style="fill:none;stroke:#263238;stroke-miterlimit:10;stroke-width:0.5px"></line><line x1="401.9" y1="385.58" x2="407.41" y2="376.59" style="fill:none;stroke:#263238;stroke-miterlimit:10;stroke-width:2px"></line><path d="M405.73,379.29a8.22,8.22,0,0,1,1.55-6.61c1.48-2,10.21-8.07,11.84-4.88C420.88,371.26,412.59,380.54,405.73,379.29Z" style="fill:#92E3A9;stroke:#263238;stroke-miterlimit:10"></path><line x1="405.73" y1="379.29" x2="414.13" y2="371.27" style="fill:none;stroke:#263238;stroke-miterlimit:10;stroke-width:0.5px"></line><line x1="397.11" y1="339.72" x2="402.62" y2="330.73" style="fill:none;stroke:#263238;stroke-miterlimit:10"></line><path d="M400.94,333.43a8.23,8.23,0,0,1,1.56-6.62c1.47-2,10.21-8.06,11.83-4.88C416.09,325.39,407.81,334.67,400.94,333.43Z" style="fill:#92E3A9;stroke:#263238;stroke-miterlimit:10"></path><line x1="400.94" y1="333.43" x2="409.34" y2="325.4" style="fill:none;stroke:#263238;stroke-miterlimit:10;stroke-width:0.5px"></line><line x1="395.01" y1="319.56" x2="400.52" y2="310.57" style="fill:none;stroke:#263238;stroke-miterlimit:10"></line><path d="M398.84,313.27a8.22,8.22,0,0,1,1.55-6.61c1.48-2,10.21-8.07,11.84-4.88C414,305.24,405.7,314.52,398.84,313.27Z" style="fill:#92E3A9;stroke:#263238;stroke-miterlimit:10"></path><line x1="398.84" y1="313.27" x2="407.24" y2="305.25" style="fill:none;stroke:#263238;stroke-miterlimit:10;stroke-width:0.5px"></line><line x1="391.92" y1="290.01" x2="397.44" y2="281.02" style="fill:none;stroke:#263238;stroke-miterlimit:10"></line><path d="M395.76,283.72a8.17,8.17,0,0,1,1.55-6.61c1.48-2,10.21-8.07,11.83-4.88C410.91,275.69,402.62,285,395.76,283.72Z" style="fill:#92E3A9;stroke:#263238;stroke-miterlimit:10"></path><line x1="395.76" y1="283.72" x2="404.15" y2="275.7" style="fill:none;stroke:#263238;stroke-miterlimit:10;stroke-width:0.5px"></line><path d="M389.57,271.12a8.17,8.17,0,0,1,1.55-6.61c1.48-2,10.21-8.07,11.83-4.88C404.72,263.09,396.43,272.37,389.57,271.12Z" style="fill:#92E3A9;stroke:#263238;stroke-miterlimit:10"></path><line x1="389.57" y1="271.12" x2="397.96" y2="263.09" style="fill:none;stroke:#263238;stroke-miterlimit:10;stroke-width:0.5px"></line><path d="M390.05,271.47a8.22,8.22,0,0,1-6.41-2.24c-1.85-1.68-6.95-11-3.61-12.28C383.65,255.56,392,264.77,390.05,271.47Z" style="fill:#92E3A9;stroke:#263238;stroke-miterlimit:10"></path><line x1="390.05" y1="271.47" x2="382.95" y2="262.27" style="fill:none;stroke:#263238;stroke-miterlimit:10;stroke-width:0.5px"></line><line x1="431.89" y1="293.08" x2="415.98" y2="446.34" style="fill:none;stroke:#263238;stroke-miterlimit:10"></line><line x1="419.5" y1="417.11" x2="413.98" y2="408.12" style="fill:none;stroke:#263238;stroke-miterlimit:10"></line><path d="M415.66,410.82a8.2,8.2,0,0,0-1.56-6.61c-1.47-2-10.21-8.06-11.83-4.88C400.51,402.8,408.8,412.07,415.66,410.82Z" style="fill:#92E3A9;stroke:#263238;stroke-miterlimit:10"></path><line x1="415.66" y1="410.82" x2="407.73" y2="403.21" style="fill:none;stroke:#263238;stroke-miterlimit:10;stroke-width:0.5px"></line><line x1="423.91" y1="374.57" x2="418.39" y2="365.59" style="fill:none;stroke:#263238;stroke-miterlimit:10"></line><path d="M420.08,368.29a8.22,8.22,0,0,0-1.56-6.62c-1.48-2-10.22-8.05-11.84-4.87C404.92,360.26,413.21,369.54,420.08,368.29Z" style="fill:#92E3A9;stroke:#263238;stroke-miterlimit:10"></path><line x1="420.08" y1="368.29" x2="412.15" y2="360.68" style="fill:none;stroke:#263238;stroke-miterlimit:10;stroke-width:0.5px"></line><line x1="422.1" y1="392" x2="416.58" y2="383.02" style="fill:none;stroke:#263238;stroke-miterlimit:10"></line><path d="M418.27,385.72a8.22,8.22,0,0,0-1.56-6.62c-1.48-2-10.22-8.05-11.84-4.87C403.11,377.69,411.41,387,418.27,385.72Z" style="fill:#92E3A9;stroke:#263238;stroke-miterlimit:10"></path><line x1="418.27" y1="385.72" x2="410.34" y2="378.11" style="fill:none;stroke:#263238;stroke-miterlimit:10;stroke-width:0.5px"></line><line x1="426.85" y1="346.26" x2="421.33" y2="337.27" style="fill:none;stroke:#263238;stroke-miterlimit:10"></line><path d="M423,340a8.22,8.22,0,0,0-1.55-6.61c-1.48-2-10.22-8.06-11.84-4.87C407.86,332,416.15,341.22,423,340Z" style="fill:#92E3A9;stroke:#263238;stroke-miterlimit:10"></path><line x1="423.01" y1="339.97" x2="415.09" y2="332.37" style="fill:none;stroke:#263238;stroke-miterlimit:10;stroke-width:0.5px"></line><line x1="429.8" y1="317.82" x2="424.28" y2="308.84" style="fill:none;stroke:#263238;stroke-miterlimit:10"></line><path d="M426,311.53a8.2,8.2,0,0,0-1.56-6.61c-1.48-2-10.22-8.06-11.84-4.87C410.81,303.51,419.1,312.79,426,311.53Z" style="fill:#92E3A9;stroke:#263238;stroke-miterlimit:10"></path><line x1="425.97" y1="311.53" x2="418.04" y2="303.93" style="fill:none;stroke:#263238;stroke-miterlimit:10;stroke-width:0.5px"></line><line x1="420.43" y1="406.77" x2="427.67" y2="399.1" style="fill:none;stroke:#263238;stroke-miterlimit:10"></line><path d="M425.47,401.4a8.19,8.19,0,0,1,2.89-6.15c1.86-1.67,11.65-5.79,12.58-2.34C442,396.66,431.93,404,425.47,401.4Z" style="fill:#92E3A9;stroke:#263238;stroke-miterlimit:10"></path><line x1="425.47" y1="401.4" x2="435.34" y2="395.27" style="fill:none;stroke:#263238;stroke-miterlimit:10;stroke-width:0.5px"></line><line x1="425.19" y1="360.9" x2="432.43" y2="353.23" style="fill:none;stroke:#263238;stroke-miterlimit:10"></line><path d="M430.23,355.53a8.2,8.2,0,0,1,2.88-6.15c1.86-1.66,11.66-5.79,12.59-2.34C446.71,350.79,436.69,358.16,430.23,355.53Z" style="fill:#92E3A9;stroke:#263238;stroke-miterlimit:10"></path><line x1="430.23" y1="355.53" x2="440.1" y2="349.41" style="fill:none;stroke:#263238;stroke-miterlimit:10;stroke-width:0.5px"></line><line x1="427.28" y1="340.74" x2="434.53" y2="333.08" style="fill:none;stroke:#263238;stroke-miterlimit:10;stroke-width:2px"></line><path d="M432.32,335.37a8.2,8.2,0,0,1,2.89-6.15c1.86-1.66,11.65-5.79,12.58-2.34C448.8,330.63,438.78,338,432.32,335.37Z" style="fill:#92E3A9;stroke:#263238;stroke-miterlimit:10"></path><line x1="432.32" y1="335.37" x2="442.19" y2="329.25" style="fill:none;stroke:#263238;stroke-miterlimit:10;stroke-width:0.5px"></line><line x1="430.35" y1="311.19" x2="437.59" y2="303.53" style="fill:none;stroke:#263238;stroke-miterlimit:10"></line><path d="M435.39,305.82a8.21,8.21,0,0,1,2.88-6.15c1.86-1.66,11.65-5.79,12.59-2.34C451.87,301.08,441.85,308.46,435.39,305.82Z" style="fill:#92E3A9;stroke:#263238;stroke-miterlimit:10"></path><line x1="435.39" y1="305.82" x2="445.26" y2="299.7" style="fill:none;stroke:#263238;stroke-miterlimit:10;stroke-width:0.5px"></line><path d="M431.93,292.22a8.23,8.23,0,0,1,2.88-6.16c1.86-1.66,11.65-5.79,12.58-2.34C448.41,287.48,438.39,294.85,431.93,292.22Z" style="fill:#92E3A9;stroke:#263238;stroke-miterlimit:10"></path><line x1="431.93" y1="292.22" x2="441.8" y2="286.09" style="fill:none;stroke:#263238;stroke-miterlimit:10;stroke-width:0.5px"></line><path d="M432.33,292.66a8.2,8.2,0,0,1-5.81-3.52c-1.46-2-4.54-12.19-1-12.76C429.35,275.77,435.63,286.51,432.33,292.66Z" style="fill:#92E3A9;stroke:#263238;stroke-miterlimit:10"></path><line x1="432.33" y1="292.66" x2="427.28" y2="282.2" style="fill:none;stroke:#263238;stroke-miterlimit:10;stroke-width:0.5px"></line><line x1="413.66" y1="230.67" x2="413.66" y2="424.48" style="fill:none;stroke:#263238;stroke-miterlimit:10"></line><line x1="413.81" y1="395.34" x2="407.4" y2="386.97" style="fill:none;stroke:#263238;stroke-miterlimit:10"></line><path d="M409.35,389.48a8.21,8.21,0,0,0-2.23-6.42c-1.68-1.84-11-7-12.28-3.63C393.45,383.06,402.66,391.43,409.35,389.48Z" style="fill:#92E3A9;stroke:#263238;stroke-miterlimit:10"></path><line x1="409.35" y1="389.48" x2="400.68" y2="382.73" style="fill:none;stroke:#263238;stroke-miterlimit:10;stroke-width:0.5px"></line><line x1="413.81" y1="358.91" x2="407.4" y2="350.55" style="fill:none;stroke:#263238;stroke-miterlimit:10"></line><path d="M409.35,353.06a8.21,8.21,0,0,0-2.23-6.42c-1.68-1.85-11-7-12.28-3.63C393.45,346.64,402.66,355,409.35,353.06Z" style="fill:#92E3A9;stroke:#263238;stroke-miterlimit:10"></path><line x1="409.35" y1="353.06" x2="400.68" y2="346.31" style="fill:none;stroke:#263238;stroke-miterlimit:10"></line><line x1="413.81" y1="316.15" x2="407.4" y2="307.78" style="fill:none;stroke:#263238;stroke-miterlimit:10"></line><path d="M409.35,310.29a8.19,8.19,0,0,0-2.23-6.41c-1.68-1.85-11-7-12.28-3.63C393.45,303.88,402.66,312.25,409.35,310.29Z" style="fill:#92E3A9;stroke:#263238;stroke-miterlimit:10"></path><line x1="409.35" y1="310.29" x2="400.68" y2="303.55" style="fill:none;stroke:#263238;stroke-miterlimit:10;stroke-width:0.5px"></line><line x1="413.81" y1="287.69" x2="407.4" y2="279.32" style="fill:none;stroke:#263238;stroke-miterlimit:10"></line><path d="M409.35,281.83a8.21,8.21,0,0,0-2.23-6.42c-1.68-1.84-11-7-12.28-3.63C393.45,275.41,402.66,283.78,409.35,281.83Z" style="fill:#92E3A9;stroke:#263238;stroke-miterlimit:10"></path><line x1="409.35" y1="281.83" x2="400.68" y2="275.08" style="fill:none;stroke:#263238;stroke-miterlimit:10;stroke-width:0.5px"></line><line x1="413.81" y1="259.1" x2="407.4" y2="250.73" style="fill:none;stroke:#263238;stroke-miterlimit:10"></line><path d="M409.35,253.24a8.21,8.21,0,0,0-2.23-6.42c-1.68-1.85-11-7-12.28-3.63C393.45,246.82,402.66,255.19,409.35,253.24Z" style="fill:#92E3A9;stroke:#263238;stroke-miterlimit:10"></path><line x1="409.35" y1="253.24" x2="400.68" y2="246.49" style="fill:none;stroke:#263238;stroke-miterlimit:10"></line><line x1="413.67" y1="406.46" x2="420.09" y2="398.09" style="fill:none;stroke:#263238;stroke-miterlimit:10"></line><path d="M418.14,400.6a8.21,8.21,0,0,1,2.23-6.42c1.68-1.84,11-7,12.27-3.62C434,394.18,424.83,402.55,418.14,400.6Z" style="fill:#92E3A9;stroke:#263238;stroke-miterlimit:10"></path><line x1="418.14" y1="400.6" x2="427.32" y2="393.49" style="fill:none;stroke:#263238;stroke-miterlimit:10;stroke-width:0.5px"></line><line x1="413.67" y1="348.53" x2="420.09" y2="340.16" style="fill:none;stroke:#263238;stroke-miterlimit:10"></line><path d="M418.14,342.67a8.19,8.19,0,0,1,2.23-6.41c1.68-1.85,11-7,12.27-3.63C434,336.26,424.83,344.63,418.14,342.67Z" style="fill:#92E3A9;stroke:#263238;stroke-miterlimit:10"></path><line x1="418.14" y1="342.67" x2="427.32" y2="335.56" style="fill:none;stroke:#263238;stroke-miterlimit:10;stroke-width:0.5px"></line><line x1="413.67" y1="319.94" x2="420.09" y2="311.57" style="fill:none;stroke:#263238;stroke-miterlimit:10"></line><path d="M418.14,314.08a8.19,8.19,0,0,1,2.23-6.41c1.68-1.85,11-7,12.27-3.63C434,307.67,424.83,316,418.14,314.08Z" style="fill:#92E3A9;stroke:#263238;stroke-miterlimit:10"></path><line x1="418.14" y1="314.08" x2="427.32" y2="306.97" style="fill:none;stroke:#263238;stroke-miterlimit:10;stroke-width:0.5px"></line><line x1="413.67" y1="282.15" x2="420.09" y2="273.78" style="fill:none;stroke:#263238;stroke-miterlimit:10"></line><path d="M418.14,276.29a8.19,8.19,0,0,1,2.23-6.41c1.68-1.85,11-7,12.27-3.63C434,269.88,424.83,278.25,418.14,276.29Z" style="fill:#92E3A9;stroke:#263238;stroke-miterlimit:10"></path><line x1="418.14" y1="276.29" x2="427.32" y2="269.18" style="fill:none;stroke:#263238;stroke-miterlimit:10;stroke-width:0.5px"></line><line x1="413.67" y1="252.44" x2="420.09" y2="244.07" style="fill:none;stroke:#263238;stroke-miterlimit:10"></line><path d="M418.14,246.58a8.19,8.19,0,0,1,2.23-6.41c1.68-1.85,11-7,12.27-3.63C434,240.17,424.83,248.54,418.14,246.58Z" style="fill:#92E3A9;stroke:#263238;stroke-miterlimit:10"></path><line x1="418.14" y1="246.58" x2="427.32" y2="239.47" style="fill:none;stroke:#263238;stroke-miterlimit:10;stroke-width:0.5px"></line><path d="M413.29,233.41a8.21,8.21,0,0,1,2.23-6.42c1.68-1.85,11-7,12.28-3.63C429.19,227,420,235.36,413.29,233.41Z" style="fill:#92E3A9;stroke:#263238;stroke-miterlimit:10"></path><line x1="413.29" y1="233.41" x2="422.47" y2="226.3" style="fill:none;stroke:#263238;stroke-miterlimit:10;stroke-width:0.5px"></line><path d="M413.74,233.8a8.19,8.19,0,0,1-6.15-2.89c-1.66-1.86-5.77-11.66-2.32-12.59C409,217.31,416.38,227.35,413.74,233.8Z" style="fill:#92E3A9;stroke:#263238;stroke-miterlimit:10"></path><line x1="413.74" y1="233.8" x2="407.63" y2="223.92" style="fill:none;stroke:#263238;stroke-miterlimit:10;stroke-width:0.5px"></line><polygon points="421.63 474.74 401.11 474.74 398.54 422.91 424.2 422.91 421.63 474.74" style="fill:#263238;stroke:#263238;stroke-miterlimit:10"></polygon></g><g id="freepik--character-3--inject-72"><path d="M305.61,192.8s-25.41,5.94-26.13,7.57,1.62,86.69,1.62,90.12,5,6.66,6.67,6.66,51.54-1.26,54.07-1.62,8.83-1.26,9.19-4.86-1.8-20-1.8-20l3.6-34.43s39.11,25.6,43.08,25.42,4.51-9.56,4.51-9.56l-13.34-63.26s2.7-7.21,3.06-9.91-9.91-8.83-10.81-9.19-1.26-17.31-1.81-18.93-3.06-2.16-4-.9-.36,20.19-.36,20.19-7.39-15.14-8.11-16.22-3.25-1.63-2.7,1.8,6.84,19.46,6.84,19.46-2.7,6-.9,7.75S379,195.32,379,195.32l2,36.41s-19.29-26-21.81-28.3a36.82,36.82,0,0,0-10.27-6.13c-2.35-.72-24.15-6-24.15-6Z" style="fill:#fff;stroke:#263238;stroke-miterlimit:10"></path><line x1="380.95" y1="231.73" x2="380.41" y2="245.47" style="fill:#fff;stroke:#263238;stroke-miterlimit:10"></line><path d="M379.87,165.58s-4.33,11.54-3.07,12.62,2.71,2.52,4.15.9,4.33-10.64,4.14-12.26S381,164.14,379.87,165.58Z" style="fill:#fff;stroke:#263238;stroke-miterlimit:10"></path><path d="M385.09,166.84a17.15,17.15,0,0,1,4.15,2.53c1.26,1.26.72,2.52-.72,6.48s-3.79,6-5.23,4.69a4.15,4.15,0,0,1-1.44-2.88Z" style="fill:#fff;stroke:#263238;stroke-miterlimit:10"></path><path d="M378.61,193.52s-11.54-10.1-11.72-12.26,10.82-11.89,12.44-11.53,1.44,3.06.18,4.86-3.79,6.49-3.79,6.49,4.15.72,5.23,3.79.54,8.47.54,8.47" style="fill:#fff;stroke:#263238;stroke-miterlimit:10"></path><path d="M288.2,304.14l-8.5-12.4a1.85,1.85,0,0,0-.4,0l-15.21-44.1,15.61-7.35-.22-39.94s-5.75,7.8-8.27,10.55c-1.18,1.29-29.62,31.69-30.31,35.59s24.34,40.18,24.8,40.87c.34.51,3.83,6.32,6.37,9.47l-.17.17,2.75,9.41a2.47,2.47,0,0,0-2.52,2.53c0,2.52,2.75,3.44,4.36,4.59a4.59,4.59,0,0,0,4.36.92,10.78,10.78,0,0,0,3.22-2.53l1.6-.69a5,5,0,0,0,2.3-2.75l.69-1.15C289.35,306.2,288.2,304.14,288.2,304.14Z" style="fill:#fff;stroke:#263238;stroke-miterlimit:10"></path><path d="M366.49,456.31l3.21,3s13.65,9.42,14.34,10.34.46,2.07-.23,3.21a5.66,5.66,0,0,1-2.29,1.84H352.59s-1.15-.92-.69-4.36,1-8.5,1-8.5Z" style="fill:#fff;stroke:#263238;stroke-miterlimit:10"></path><path d="M383.81,472.84a4.8,4.8,0,0,0,.45-.91H351.79c0,2.13.8,2.75.8,2.75h28.93A5.66,5.66,0,0,0,383.81,472.84Z" style="fill:#fff;stroke:#263238;stroke-miterlimit:10"></path><path d="M282.69,290.36,285,383.3l6.2,67.73-.92,2.07-.23,5.28a14.84,14.84,0,0,0,5.29.69c3.67,0,11,2.52,11,2.52s2.06-13.55,2.52-20,5.05-86.28,5.05-86.28l3-29.16,2.75-.69,16.07,83.07,17.22,53.26,13.55-5.51s.69-4.13.69-5.28-1.61-5-1.61-5l-6.2-73.93-10.79-81.23Z" style="fill:#263238;stroke:#263238;stroke-miterlimit:10"></path><path d="M291.64,455.85l-4.59,7.58s-8.5,6.66-9.18,8.26a3.07,3.07,0,0,0,.46,3h27.32l.69-13.09S296.23,455.62,291.64,455.85Z" style="fill:#fff;stroke:#263238;stroke-miterlimit:10"></path><path d="M305.79,471.92h-28a3.15,3.15,0,0,0,.53,2.76h27.32Z" style="fill:#fff;stroke:#263238;stroke-miterlimit:10"></path><path d="M359.14,203.43a36.82,36.82,0,0,0-10.27-6.13c-2.35-.72-24.15-6-24.15-6l-19.11,1.45s-25.41,5.94-26.13,7.57,1.62,86.69,1.62,90.12,5,6.66,6.67,6.66,51.54-1.26,54.07-1.62,8.83-1.26,9.19-4.86-1.8-20-1.8-20l3.6-34.43s7.46,4.88,16.18,10.36l8.51-19.45C371.87,219.58,361,205.15,359.14,203.43Z" style="fill:#92E3A9;stroke:#263238;stroke-miterlimit:10"></path><path d="M271.21,210.92c-.63.69-8.88,9.52-16.62,18.26l12.86,16.9,12.25-5.77-.22-39.94S273.73,208.17,271.21,210.92Z" style="fill:#92E3A9;stroke:#263238;stroke-miterlimit:10"></path><polyline points="354.01 214.88 352.83 236.23 357.87 219.06" style="fill:none;stroke:#263238;stroke-miterlimit:10"></polyline><path d="M308.73,186.66s-4.94,3.93-5.23,5.38a24.83,24.83,0,0,0-.29,3.79s5.82,28.65,6.69,27.93,8.29-11.79,9.75-13.82,4.36-2.48,5.09-2,13.82,14.4,14.54,12.07-3.49-24.29-6.83-29.82S311.21,183.9,308.73,186.66Z" style="fill:#fff;stroke:#263238;stroke-miterlimit:10"></path><path d="M305.68,179.53l2.91,16.15s10.18,23.42,14.84,21.82,8-25.31,8.14-25.89-.43-9.75-.43-9.75.72,2.62-9.46,1.31A71.83,71.83,0,0,1,305.68,179.53Z" style="fill:#fff;stroke:#263238;stroke-miterlimit:10"></path><path d="M308.44,194.85c3.59.65,10.41,1.27,14.6-2.11a28.12,28.12,0,0,0,7.78-10.11c-.7.65-2.81,1.35-9.14.54a71.83,71.83,0,0,1-16-3.64Z" style="fill:#263238;stroke:#263238;stroke-miterlimit:10"></path><path d="M334.41,162.57s1.51,8.37-.28,12.77-5.08,11-8,12.22-7.42.27-12.09-1.79a50.24,50.24,0,0,1-9.19-5.63,8,8,0,0,1-6.05-2.19c-2.74-2.61-5.63-5.22-4.66-8.1s1.64-3.57,1.64-3.57v-4.95s-2.47-8-2.74-11.26,9.06-13.86,15.92-15.51,13.87,3.43,16.34,6,8.38,6.18,8.52,7.55S334.41,162.57,334.41,162.57Z" style="fill:#fff;stroke:#263238;stroke-miterlimit:10"></path><path d="M334.41,162.57s1.64-2.2,2.88-1.37,2.47,5.21.55,7.82a17.75,17.75,0,0,1-3,3.43S334.82,163.67,334.41,162.57Z" style="fill:#fff;stroke:#263238;stroke-miterlimit:10"></path><path d="M320.68,156.39s0,4.81.41,5.49,4.39,2.34,4,3.43-4.53,2.06-4.53,2.06" style="fill:none;stroke:#263238;stroke-miterlimit:10"></path><path d="M311.75,172.18s5.49,2.06,8,2.06,6.59-4.12,7.28-5.08" style="fill:none;stroke:#263238;stroke-miterlimit:10"></path><path d="M310.07,160.17c.3,1.22.07,2.32-.51,2.47s-1.32-.72-1.62-1.93-.07-2.32.51-2.47S309.77,159,310.07,160.17Z" style="fill:#263238"></path><path d="M325.55,158.05c.31,1.22.08,2.32-.51,2.47s-1.31-.72-1.62-1.93-.07-2.32.52-2.47S325.25,156.84,325.55,158.05Z" style="fill:#263238"></path><path d="M303.79,156.25a9.77,9.77,0,0,1,7.14-2.74" style="fill:none;stroke:#263238;stroke-miterlimit:10"></path><path d="M321.5,152.55a5.23,5.23,0,0,1,6.73-.28" style="fill:none;stroke:#263238;stroke-miterlimit:10"></path><path d="M309.83,141.29s-4.53,9.61-7.69,12.63l-3.16,3s3.3,12.22,2.88,13-1.09,1.1-1.37,0-.55-2.06-1.37-2.33-3.3-1.37-3.3-1.37l-4.53-11.54s-3.7-4-2.74-7.41S292.8,138,292.8,138s-1.92-.68-1.1-2.2,9.34-1.51,9.34-1.51.82-4.66,3.43-5.35,2.61.27,2.61.27,9.75-5.08,15.38-4.94,22.65,15.1,21,17.16-7.55,3.44-7.55,3.44-.14,17.16-.83,17.43l-.68.28-2.61-15S314.5,144.86,309.83,141.29Z" style="fill:#263238;stroke:#263238;stroke-miterlimit:10"></path></g><g id="freepik--character-1--inject-72"><path d="M187.38,452l1.88,5.48s16.27,9.82,16.5,12.41a10.47,10.47,0,0,1-.7,4.72H163.81s-1-6.41.14-11.6.8-7.06.8-7.06Z" style="fill:#fff;stroke:#263238;stroke-miterlimit:10"></path><path d="M163.49,471.65c.12,1.78.32,3,.32,3h41.25a11,11,0,0,0,.72-3.3Z" style="fill:#fff;stroke:#263238;stroke-miterlimit:10"></path><path d="M196.39,251.75l-9.15,37.91,7.45,9.49s16.24-29,17.52-31.58,5.72-6.53-.06-20.81c-3-7.29-5.18-9.51-5.18-9.51" style="fill:#92E3A9;stroke:#263238;stroke-miterlimit:10"></path><path d="M187.24,289.66,182.62,293s-6.16,10.78-5.39,12.32a4.42,4.42,0,0,0,2.31,2.06l3.6,3.7s3.59,1.43,5.64.41,5.91-12.33,5.91-12.33Z" style="fill:#a3a3a3;stroke:#263238;stroke-miterlimit:10"></path><path d="M113.13,293.63s-1.41,7.31-2.12,12,7.85,71,7.85,74.74S117.44,395,117,400.9s1.58,38.18,1.58,38.18l.48,10.37s7.77,3.3,14.14,1.89,10.6-3.07,10.84-3.77,0-13,0-13,.94-42,1.89-46.19,5.65-53.06,5.65-53.06,4.48,59.18,4.72,59.89-.24,1.89.23,14.14,6.6,44,6.6,44,6.6.94,10.84-.24,12-4.24,12.26-5.18a72.82,72.82,0,0,0,.71-9.43c0-3.06-2.83-12.66-2.83-15s-.24-66.26.23-77.1-1.65-44.55-1.65-46.2-.71-21.36-.71-21.36-6.2,13.44-24.11,9.9-41.78-11.19-41.78-11.19Z" style="fill:#263238;stroke:#263238;stroke-miterlimit:10"></path><path d="M144.48,189.49,126.1,194.2l7.62,95.86a62.53,62.53,0,0,0,27.56,3.45c15.09-1.65,21.1-9.91,21.1-9.91s-4.9-86.57-6.55-89.87-11.55-4.95-13.44-5.65S144.48,189.49,144.48,189.49Z" style="fill:#fff;stroke:#263238;stroke-miterlimit:10"></path><path d="M141,173.93s1.65,15.56,1.65,18.86-.71,8,5.65,12.49,15.32,3.77,18.15-3.06,1.18-25.69,1.18-25.69A12.35,12.35,0,0,1,156.74,181C149.67,180.3,141,173.93,141,173.93Z" style="fill:#a3a3a3;stroke:#263238;stroke-miterlimit:10"></path><path d="M156.74,181c-5.48-.55-11.93-4.49-14.57-6.23L141,174.5c.29,2.8,1.59,15.36,1.59,18.29,0,.44,0,.9,0,1.38a27.73,27.73,0,0,0,14.21-5c7.33-5.27,8.87-9.6,8.87-9.6l-4.93,1.2A12.83,12.83,0,0,1,156.74,181Z" style="fill:#263238;stroke:#263238;stroke-miterlimit:10"></path><path d="M173.47,151.46s4.72-1.88,4.95,2.59-5.65,10.85-5.65,10.85Z" style="fill:#a3a3a3;stroke:#263238;stroke-miterlimit:10"></path><path d="M144,120.58s-10.61,5-12.26,12.73,2.6,21.22,2.6,21.22-4.25-2.6-5.42,1.65,1.88,8.72,3.77,9.42a8,8,0,0,0,4,.24L141,175.5s13.67,9.43,18.38,8.49,10.37-7.54,12.49-10.37,2.6-31.35,2.83-35.12-1.41-12-6.83-15.79S149.43,116.58,144,120.58Z" style="fill:#a3a3a3;stroke:#263238;stroke-miterlimit:10"></path><path d="M167.82,122.71c-5.43-3.78-18.39-6.13-23.81-2.13,0,0-10.61,5-12.26,12.73s2.6,21.22,2.6,21.22l0,0c.79.91,1.68,1.59,1.92.49.47-2.12-.23-5.42-.47-9.2s1.41-3.3,1.65-8.24-.47-8.25,3.77-11.55,9.9,1.65,15.56,2.35,9.9-4.24,12.49-2.35,4.24,5.89,4,10.37-.47,4.47.47,8.25c.24,1,.45,1.78.63,2.45.15-4.16.24-7.46.31-8.58C174.89,134.73,173.24,126.48,167.82,122.71Z" style="fill:#263238;stroke:#263238;stroke-miterlimit:10"></path><path d="M149.18,152.46c.2,1.55-.26,2.89-1,3s-1.56-1.08-1.76-2.63.27-2.89,1-3S149,150.91,149.18,152.46Z" style="fill:#263238"></path><path d="M165.22,152.11c.07,1.56-.52,2.85-1.3,2.88s-1.46-1.2-1.52-2.76.51-2.86,1.29-2.89S165.16,150.55,165.22,152.11Z" style="fill:#263238"></path><path d="M155.56,163c.94,1.89,6.13.47,7.78-1.18s-2.36-6.83-2.6-9.66,3.3-5.89,3.3-5.89" style="fill:none;stroke:#263238;stroke-miterlimit:10"></path><path d="M162.87,168s-6.13,1.89-11.08-1.41" style="fill:none;stroke:#263238;stroke-miterlimit:10"></path><path d="M143.3,147.69s3.77-3.3,9.67-.94" style="fill:none;stroke:#263238;stroke-miterlimit:10"></path><path d="M172.29,147.93a6.24,6.24,0,0,0-5.89-2.36" style="fill:none;stroke:#263238;stroke-miterlimit:10"></path><path d="M141.89,189s7.78,65.25,10.37,79.63,5.89,18.62,5,24-5.66,21.92-7.78,24.75-9.19-7.08-15.79-14.15-12.73-6.36-16.5-6.6-6.13-.23-6.13-.23a49.52,49.52,0,0,1,.47-7.31c.47-1.88,3.3-13.2,3.54-13.9s-4.51-78.68-3.8-80.09,15.82-4.73,17.47-5.43S140,184.07,141.89,189Z" style="fill:#92E3A9;stroke:#263238;stroke-miterlimit:10"></path><path d="M119.35,289.34s16.47-1.13,21.71,7.48" style="fill:none;stroke:#263238;stroke-miterlimit:10"></path><path d="M138.45,298.23a22,22,0,0,1,2.61,4.58" style="fill:none;stroke:#263238;stroke-miterlimit:10"></path><path d="M132.45,292.7a19.19,19.19,0,0,1,4.54,3.76" style="fill:none;stroke:#263238;stroke-miterlimit:10"></path><path d="M141.89,183.13s-2.36-2.36-4.24-.95-9,7.55-9,7.55,3.53,30.87,5.42,28.52,6.13-9.43,6.84-9.67,4.47,5.89,4.47,5.89Z" style="fill:#92E3A9;stroke:#263238;stroke-miterlimit:10"></path><path d="M212.15,246.76a47.37,47.37,0,0,0-2-4.44c-2.59-5.18-20.17-45.76-24.88-50s-16.74-4.24-16.74-4.24,6.84,46.86,6.6,64.07-3.3,61.51-2.83,63.16,7.31-1.41,10.85-4.24,4.47-3.3,4.71-4.71-1.41-47.61-1.41-49.26,0-21.17,0-21.17,9.37,26.73,10.55,26.73" style="fill:#92E3A9;stroke:#263238;stroke-miterlimit:10"></path><line x1="186.41" y1="235.93" x2="185.19" y2="219.94" style="fill:#92E3A9;stroke:#263238;stroke-miterlimit:10"></line><path d="M168.29,182.66a2.43,2.43,0,0,1,3.06.7c1.42,1.65,5,6.6,5,6.6s5.66,17.68,5.42,20-4.71-2.36-5.89-2.12-3.54,3.53-3.54,3.53l-4-21Z" style="fill:#92E3A9;stroke:#263238;stroke-miterlimit:10"></path><path d="M118.77,192.94s-10.38,2.22-12.5,4.34S79,262.12,79,264.71s29.41,42.59,29.41,42.59L120.68,296l-17.15-31.52,14.33-33.14" style="fill:#92E3A9;stroke:#263238;stroke-miterlimit:10"></path><path d="M120.68,296s3.53,2.12,5.18,3.3,4.71,6.6,5.89,7.3,1.89,3.3-.7,3.54-5.42-3.54-6.13-4.24-12.71,8.54-12.71,8.54l-2.08-8.62Z" style="fill:#a3a3a3;stroke:#263238;stroke-miterlimit:10"></path><path d="M161.22,445.13s.75,9.19,1.22,10.6,8,1,11.5,1.18A27.88,27.88,0,0,0,186.27,455a5.23,5.23,0,0,0,3.17-4.58c.12-2.8.18-6.85-.41-8.61-.94-2.83-2.59-2.6-4.24-1.18s-6.6,3.24-14.61,3.48S162.39,443.48,161.22,445.13Z" style="fill:#a3a3a3;stroke:#263238;stroke-miterlimit:10"></path><path d="M120.91,450.16l-2.32,10.3s-11.4,6.43-12.81,8.56-.94,5.65-.94,5.65h39.88s1.65.24,1.88-2.59S144,452.52,144,452.52Z" style="fill:#fff;stroke:#263238;stroke-miterlimit:10"></path><path d="M104.84,474.67h39.88s1.65.24,1.88-2.59a7.25,7.25,0,0,0,0-.94H105A12,12,0,0,0,104.84,474.67Z" style="fill:#fff;stroke:#263238;stroke-miterlimit:10"></path><path d="M145.19,444.74s.53,11.3.3,12.48-8,4-14.14,3.07S119.09,458.87,117,457s-.77-10.37-.3-12,5.89,1.65,11.78,1.89,13-.94,15.09-2.59S145.19,444.74,145.19,444.74Z" style="fill:#a3a3a3;stroke:#263238;stroke-miterlimit:10"></path></g><g id="freepik--character-2--inject-72"><path d="M270.11,173.57a25.27,25.27,0,0,1,9.83,8.12c4.15,6.22,6.24,16.82,1.51,23.06s-5.86,6.24-4.91,7.75,5.86-.76,5.86-.76.75,4.73-2.65,6.24-14,5.29-20.6.19-4.92-17.2-.95-24,4.35-8.32,4.73-9.45S266.14,173,270.11,173.57Z" style="fill:#263238;stroke:#263238;stroke-miterlimit:10"></path><path d="M232.15,321.45s2.51,44.4,4.4,56.75,4.61,23.88,6.49,35.18,2.51,34.55,2.51,37.7,1.26,4.81-4.81,10.47-15.29,9.21-14.66,10.67,6.91,2.94,14.45,2.31,15.07-.84,15.49-1.89,2.1-6.49,2.1-15.49,3.77-34.76,4.81-47.95-2.51-27.23-1.46-31.62,2.51-57.18,2.51-63-33.71.84-33.71.84Z" style="fill:#263238;stroke:#263238;stroke-miterlimit:10"></path><path d="M245.55,455.47l-.19.07c-.48,1.48-1.7,3.28-4.62,6-6.08,5.65-15.29,9.21-14.66,10.67s6.91,2.94,14.45,2.31,15.07-.84,15.49-1.89,2.1-6.49,2.1-15.49c0-.51,0-1.09,0-1.7a13.56,13.56,0,0,1-5.06,1.91C250,457.57,245.55,455.47,245.55,455.47Z" style="fill:#92E3A9;stroke:#263238;stroke-miterlimit:10"></path><path d="M256,472.64a24,24,0,0,0,1-3.45c-7.12,1.59-20.24,3.51-23.56,3a21.69,21.69,0,0,1-5.82-1.72c-1.09.74-1.69,1.31-1.51,1.72.63,1.47,6.91,2.94,14.45,2.31S255.6,473.69,256,472.64Z" style="fill:#fff;stroke:#263238;stroke-miterlimit:10"></path><path d="M196.76,307.42s-14.24,60.31-15.49,67.22-1.47,10.06-.84,11.52,74.77,60.43,74.77,60.43l5.44-9.84S239.48,409.4,231.1,401s-23.45-24.71-23.45-24.71l23.66-57.38Z" style="fill:#263238;stroke:#263238;stroke-miterlimit:10"></path><path d="M255.2,446.59s-.21,13-.63,15.49a24.14,24.14,0,0,1-3.35,8.38c-1.47,2.09-5.45,4.19-1.05,4.19a44.79,44.79,0,0,0,11.31-1.47c3.35-.84,5.65-11.31,9.63-16.12s6.91-9.63,6.91-12.15-17.38-8.16-17.38-8.16Z" style="fill:#92E3A9;stroke:#263238;stroke-miterlimit:10"></path><path d="M278,444.91c0-.83-1.93-2-4.5-3.23a39.16,39.16,0,0,1-4.71,12c-2.72,4.6-5,14.66-9.84,17.59-3.49,2.12-7.84,1.83-10,1.5-1.07,1.08-1.48,1.85,1.18,1.85a44.79,44.79,0,0,0,11.31-1.47c3.35-.84,5.65-11.31,9.63-16.12S278,447.43,278,444.91Z" style="fill:#fff;stroke:#263238;stroke-miterlimit:10"></path><path d="M193.56,310.87,192.3,319s17.5,10.28,31.73,12.77c8.82,1.55,24.17,1.12,31.74-.42A57.71,57.71,0,0,0,266,327.68l.72-16.91s-39.64,6-56.18,1.36S193.56,310.87,193.56,310.87Z" style="fill:#92E3A9;stroke:#263238;stroke-miterlimit:10"></path><path d="M237,188.37l-2.76,14.14s-7.12-.63-12.15-4.18-12.35-7.54-20.94-8.38-26.8-3.14-26.8-3.14,23.66,20.1,24.29,20.94S208,254.11,208,254.11s-16.15,55.77-16.78,57.24,6.5,5.65,6.5,5.65,24.61,12.07,47.36,10.68c9.46-.58,21.91-4.24,22.75-7s-1.14-21.24-1.14-21.24L264,258s3.56-15.7,3.77-16.54,20.94,30.78,20.94,30.78,7.12,1.68,11.1-.63,5.44-12.77,4.19-16.54-26.81-38.95-30-41.25-20.1-7.33-20.1-7.33l.69-15.05Z" style="fill:#fff"></path><path d="M200.26,280.77l-1.59,5.49c11,4.62,29,10.54,49.14,10.54a95,95,0,0,0,18.6-1.8l-.37-5.66C239.72,294.77,213.91,286.51,200.26,280.77Z" style="fill:#92E3A9"></path><path d="M241.12,282.27c10.7,0,18.08-1,24.24-3.26l-.39-5.88c-6.78,2.91-15.28,3.85-29.56,3.46-9.76-.26-22.22-6.61-30.56-11.6-.5,1.73-1,3.6-1.62,5.57,8.84,5.17,21.51,11.34,32,11.63C237.32,282.24,239.27,282.27,241.12,282.27Z" style="fill:#92E3A9"></path><path d="M234.27,261.28c-12.31-1.44-21-6-27-10.9.45,2.32.72,3.73.72,3.73s-.34,1.15-.91,3.13a57.78,57.78,0,0,0,26.52,9.6,134.65,134.65,0,0,0,15.78,1,67.76,67.76,0,0,0,15.13-1.47l-.37-5.69C258.87,262.06,249.65,263.09,234.27,261.28Z" style="fill:#92E3A9"></path><path d="M282.17,262.35c1.12,1.7,2.17,3.28,3.08,4.67,5.59-3.26,15.93-5.66,23-5.52.23-2.17-2.63-5-3-6.4C296.93,255,288.38,258.69,282.17,262.35Z" style="fill:#92E3A9"></path><path d="M239.92,238.49a46.44,46.44,0,0,0,8.7.79c8.73,0,18.77-2.14,30-6.38,2.9-1.1,5.58-2.23,8-3.31-1.18-1.59-2.33-3.14-3.44-4.62-11.22,4.94-28.22,10.7-42.15,8-11.35-2.18-20.21-15-25.63-25.29a136.55,136.55,0,0,1-7.17-16.34,36.6,36.6,0,0,0-6.41-1.34C205.51,201.26,218.3,234.33,239.92,238.49Z" style="fill:#92E3A9"></path><path d="M226.38,248.54a47.7,47.7,0,0,0,18.35,3.31A88.33,88.33,0,0,0,266,248.92c.56-2.43,1.09-4.76,1.41-6.16-13.13,3.62-27.58,5.29-38.94.61-10-4.11-19.59-14.71-27.85-26.64.76,3.68,1.65,8.14,2.54,12.68C210.31,238,218.16,245.15,226.38,248.54Z" style="fill:#92E3A9"></path><path d="M248.53,321.35A85.8,85.8,0,0,0,268,319.3c.07-1.38,0-3.44-.13-5.73-24.68,6.25-58.88-2.67-75-7.73-.86,2.88-1.45,4.84-1.64,5.38a252.14,252.14,0,0,0,25,6.49A163,163,0,0,0,248.53,321.35Z" style="fill:#92E3A9"></path><path d="M196.05,295.21l-1.58,5.4a226.24,226.24,0,0,0,25.1,6.08,163.18,163.18,0,0,0,29,2.84,102.67,102.67,0,0,0,18.88-1.64c-.17-2.12-.36-4.11-.51-5.63C241.44,307.17,211.08,299.76,196.05,295.21Z" style="fill:#92E3A9"></path><path d="M178.93,190.7c3.32,2.83,7.88,6.72,11.78,10.08-2.54-4.48-4.83-8.82-6.82-12.79l-6.7-.83Q178,188.87,178.93,190.7Z" style="fill:#92E3A9"></path><path d="M297.13,244.33a86,86,0,0,0-20.64,9.51c1,1.54,2.09,3.12,3.13,4.67,5.05-3.1,12.95-7.36,20.85-9.27C299.49,247.77,298.37,246.12,297.13,244.33Z" style="fill:#92E3A9"></path><path d="M268.62,242.43c.76,1,2,2.72,3.42,4.83,1.83-.55,3.69-1.14,5.59-1.79,6-2.06,11.4-4.33,15.83-6.36-1.09-1.52-2.21-3.09-3.34-4.65A162.89,162.89,0,0,1,268.62,242.43Z" style="fill:#92E3A9"></path><path d="M237,188.37l-2.76,14.14s-7.12-.63-12.15-4.18-12.35-7.54-20.94-8.38-26.8-3.14-26.8-3.14,23.66,20.1,24.29,20.94S208,254.11,208,254.11s-16.15,55.77-16.78,57.24,6.5,5.65,6.5,5.65,24.61,12.07,47.36,10.68c9.46-.58,21.91-4.24,22.75-7s-1.14-21.24-1.14-21.24L264,258s3.56-15.7,3.77-16.54,20.94,30.78,20.94,30.78,7.12,1.68,11.1-.63,5.44-12.77,4.19-16.54-26.81-38.95-30-41.25-20.1-7.33-20.1-7.33l.69-15.05Z" style="fill:none;stroke:#263238;stroke-miterlimit:10"></path><path d="M280.18,221.13l-.27.22c-5.18,3.93-12.68,6.4-20.51,6.91a44.2,44.2,0,0,1-6,0c-7.76-.48-15.36-3-20.87-7.87a37.92,37.92,0,0,1-3.29-3.3,41.37,41.37,0,0,1-4.52-6.13,50.13,50.13,0,0,1-6-14.86c1.21.73,2.35,1.48,3.37,2.2a24.43,24.43,0,0,0,8,3.45l.56.13a28.7,28.7,0,0,0,3.57.61L237,188.37l17.61,3.07-.69,15.05s17,5,20.11,7.33C274.85,214.41,277.17,217.23,280.18,221.13Z" style="fill:#fff;stroke:#263238;stroke-miterlimit:10"></path><path d="M254.45,195.26l-6-4.89-11.46-2-2.56,13.1c2.13.91,5.26,1.81,8.24,1,4.16-1.14,9.68-4.69,11.7-6.06Z" style="fill:#263238;stroke:#263238;stroke-miterlimit:10"></path><path d="M230.12,201.77l.57.07v.06l-1.42,15.21a41.37,41.37,0,0,1-4.52-6.13l2.24-9.6Z" style="fill:#92E3A9;stroke:#263238;stroke-miterlimit:10"></path><path d="M261.81,209.27l-2.41,19a44.2,44.2,0,0,1-6,0l3.74-20.4Z" style="fill:#92E3A9;stroke:#263238;stroke-miterlimit:10"></path><path d="M234.2,161.47s-2.65,18.52-1.7,22.3,8.88,14.93,14,14.74,14.74-4.72,16.44-7.93,7.18-17,7.18-17,.76-8.13-.38-12.48-5.1-8.88-10.2-9.45S237,153.34,234.2,161.47Z" style="fill:#fff;stroke:#263238;stroke-miterlimit:10"></path><path d="M261,157.12s-2.84,3.78-17,6-16.44-6.23-16.07-7.37,3.78-9.64,16.45-12.47,22.49,3.4,26.65,10.2,2.83,14.74,1.51,18.15a20.13,20.13,0,0,1-3.4,5.67s-.57-.38-1.71-3.78S257.64,165.06,261,157.12Z" style="fill:#263238;stroke:#263238;stroke-miterlimit:10"></path><path d="M233.26,167.52s-1.71-6.43-4.16-.38,3.59,9.26,3.59,9.26Z" style="fill:#fff;stroke:#263238;stroke-miterlimit:10"></path><path d="M268.41,177.35s3.4-2.46,4.35,1.13-4.92,7-6.24,7.56a5.89,5.89,0,0,1-2.08.57Z" style="fill:#fff;stroke:#263238;stroke-miterlimit:10"></path><path d="M240.82,168.27s4.34-2.26,6.8,1.33" style="fill:none;stroke:#263238;stroke-miterlimit:10"></path><path d="M255.94,171.87s3.59-2.27,5.85,2.26" style="fill:none;stroke:#263238;stroke-miterlimit:10"></path><path d="M249.89,170.16A10.72,10.72,0,0,1,248,174.7c-1.51,1.89-1.14,3,0,3.59s3.4-.38,3.4-.38" style="fill:none;stroke:#263238;stroke-miterlimit:10"></path><path d="M240.06,180s3.78,3.59,6.8,4.35,9.45,0,10.78-1" style="fill:none;stroke:#263238;stroke-miterlimit:10"></path><path d="M240.63,163.93a10.37,10.37,0,0,1,7.75-2.08" style="fill:none;stroke:#263238;stroke-linecap:round;stroke-miterlimit:10;stroke-width:2px"></path><path d="M256.88,164.49a6.81,6.81,0,0,1,6.24,5.3" style="fill:none;stroke:#263238;stroke-linecap:round;stroke-miterlimit:10;stroke-width:2px"></path><path d="M203.84,196.3c2.88,3.93,4,8-1,11-2.1,1.26-6.5,1-12.36-1.68s-15.29-13.19-18-16.54-.84-8.79,1.89-10.89c6.81-5.24,16.22,2.75,20.16,7.93C196.39,188.61,201,192.39,203.84,196.3Z" style="fill:#fff"></path><path d="M200.77,192.69c-1.54-1.62-3.14-3.15-4.42-4.48l-.5.22c-4.39,2.11-8.39,6.33-11.93,12.56a40.13,40.13,0,0,0,4.48,3.47C193.48,195.2,198.31,193.1,200.77,192.69Z" style="fill:#92E3A9"></path><path d="M186.13,178.63a36.08,36.08,0,0,0-12.86,11.44c1,1.13,2.31,2.65,3.87,4.31,2.21-3.7,6.33-8.42,14-12A27.49,27.49,0,0,0,186.13,178.63Z" style="fill:#92E3A9"></path><path d="M203.84,196.3c2.88,3.93,4,8-1,11-2.1,1.26-6.5,1-12.36-1.68s-15.29-13.19-18-16.54-.84-8.79,1.89-10.89c6.81-5.24,16.22,2.75,20.16,7.93C196.39,188.61,201,192.39,203.84,196.3Z" style="fill:none;stroke:#263238;stroke-miterlimit:10"></path><path d="M205.14,199.79s-4.19,1.26-6.49,3.56-2.93,2.93-2.1,4,2.31,4.4,4.82,5.44,8-3.14,8.79-4.81a4.1,4.1,0,0,0-.2-4.4A39.35,39.35,0,0,0,205.14,199.79Z" style="fill:#92E3A9;stroke:#263238;stroke-miterlimit:10"></path><path d="M207.44,206.07s-6.07,3.77-6.91,5,2.31,9.84,2.31,9.84l1.25,3.56s-1.88-1.88-2.72-1.05.63,4,1,4.61,2.51,4.4,4,4.19,7.95-.84,9.42-1.89,4.61-5,5-6.49-5.23-10.47-7.53-13.82S209.12,205.65,207.44,206.07Z" style="fill:#fff;stroke:#263238;stroke-miterlimit:10"></path><path d="M257.49,290.88s-4.82,4.61-5.65,6.49,1.25,5.65,1.67,8.17a7.07,7.07,0,0,0,5,5.23c2.51.84,8.37,3.77,10.26,1.68s4.39-5.87,4-8.38-4-4.81-4-4.81a31.24,31.24,0,0,1-2.73-2.73c-.83-1-3.14-1.46-3.56-2.09S257.49,290.88,257.49,290.88Z" style="fill:#fff;stroke:#263238;stroke-miterlimit:10"></path><path d="M261.47,297.37a8,8,0,0,1,2.51,4,27.5,27.5,0,0,1,.63,5.65s3.77-6.28,5-4.39-.41,6.91-1.67,7.53l-1.26.63" style="fill:#fff;stroke:#263238;stroke-miterlimit:10"></path><path d="M262.1,287.11s-4.4,2.09-4.61,3.77,2.09,6.49,4,6.49,7.54-4,7.54-4Z" style="fill:#92E3A9;stroke:#263238;stroke-miterlimit:10"></path><path d="M291,266.59s-28.27,17-28.89,20.52,2.72,6.7,4.81,7.54,30.57-11.94,37.27-14.87,8.38-7.12,6.71-13.4-7.6-13.49-7.6-13.49" style="fill:#fff"></path><path d="M281.86,272.24c-2.05,1.3-4.26,2.73-6.44,4.17C280,277,287,279,292,285.13c1.86-.8,3.65-1.59,5.28-2.3A29.59,29.59,0,0,0,281.86,272.24Z" style="fill:#92E3A9"></path><path d="M273.46,292.8c1.58-.59,3.36-1.29,5.26-2.06a54,54,0,0,0-8-11.13c-1.68,1.18-3.24,2.31-4.55,3.34A50.72,50.72,0,0,1,273.46,292.8Z" style="fill:#92E3A9"></path><path d="M311.46,271.18c-5.2-4.16-11.63-6.39-17.65-7.56l-2.82,3s-1.17.7-3,1.84c7,.76,15.35,2.84,21.15,8.13A8.25,8.25,0,0,0,311.46,271.18Z" style="fill:#92E3A9"></path><path d="M301.08,255.36l-7.46,8.3a53.09,53.09,0,0,1,14.6-2.16,4.7,4.7,0,0,0-.75-2.6c-.88-1.47-1.76-2.77-2.5-3.79A28.13,28.13,0,0,0,301.08,255.36Z" style="fill:#92E3A9"></path><path d="M291,266.59s-28.27,17-28.89,20.52,2.72,6.7,4.81,7.54,30.57-11.94,37.27-14.87,8.38-7.12,6.71-13.4-7.6-13.49-7.6-13.49" style="fill:none;stroke:#263238;stroke-miterlimit:10"></path></g><g id="freepik--Hearts--inject-72"><path d="M209,128.31s-5.42-13.57-12.48-3.25,20.08,28.22,20.08,28.22,14.12-20.62,12.49-32.57S212.29,119.09,209,128.31Z" style="fill:none;stroke:#263238;stroke-miterlimit:10"></path><path d="M80.93,328.07s-6.52-6.51-9.78,0,16.29,20.09,16.29,20.09A36.73,36.73,0,0,0,95,329.7C96.12,318.85,84.73,320.48,80.93,328.07Z" style="fill:none;stroke:#263238;stroke-miterlimit:10"></path><path d="M412.87,165.71s-3.8-11.94-8.14-5.43,6.51,19,6.51,19,11.94-6.51,10.31-11.94S412.87,165.71,412.87,165.71Z" style="fill:none;stroke:#263238;stroke-miterlimit:10"></path><path d="M366.24,327.58s-3.5-13.21-7.79-6.6,6.23,22.29,6.23,22.29,9-6.19,9.35-13.21S369,323.87,366.24,327.58Z" style="fill:none;stroke:#263238;stroke-miterlimit:10"></path><path d="M88,143s-3.5-13.21-7.79-6.61,6.23,22.3,6.23,22.3,9-6.19,9.35-13.21S90.71,139.25,88,143Z" style="fill:none;stroke:#263238;stroke-miterlimit:10"></path></g><g id="freepik--Floor--inject-72"><line x1="65.21" y1="474.74" x2="431.93" y2="474.74" style="fill:none;stroke:#263238;stroke-miterlimit:10"></line></g></svg>